<?xml version="1.0" encoding="utf-8"?>
<!-- Generator: Adobe Illustrator 15.1.0, SVG Export Plug-In  -->
<!DOCTYPE svg PUBLIC "-//W3C//DTD SVG 1.1//EN" "http://www.w3.org/Graphics/SVG/1.1/DTD/svg11.dtd" [
	<!ENTITY ns_flows "http://ns.adobe.com/Flows/1.0/">
]>
<svg version="1.1"
	 xmlns="http://www.w3.org/2000/svg" xmlns:xlink="http://www.w3.org/1999/xlink" xmlns:a="http://ns.adobe.com/AdobeSVGViewerExtensions/3.0/"
	 x="0px" y="0px" width="620px" height="127px" viewBox="0 0.219 620 127" enable-background="new 0 0.219 620 127"
	 xml:space="preserve">
<defs>
</defs>
<g>
	<defs>
		<path id="SVGID_1_" d="M18.08,107.9l0.681-92.903C18.822,6.677,25.902,0,34.547,0.063l569.887,3.896
			c8.646,0.06,15.625,6.836,15.566,15.154l-0.685,92.903c-0.06,8.317-7.14,14.994-15.785,14.932l-569.888-3.893
			C24.999,122.992,18.019,116.218,18.08,107.9"/>
	</defs>
	<clipPath id="SVGID_2_">
		<use xlink:href="#SVGID_1_"  overflow="visible"/>
	</clipPath>
	<linearGradient id="SVGID_3_" gradientUnits="userSpaceOnUse" x1="368.6318" y1="160.4346" x2="263.3203" y2="-45.396">
		<stop  offset="0" style="stop-color:#EBEBEB"/>
		<stop  offset="0.17" style="stop-color:#E6E6E1"/>
		<stop  offset="0.33" style="stop-color:#FFFFFF"/>
		<stop  offset="0.56" style="stop-color:#EBEBEB"/>
		<stop  offset="0.77" style="stop-color:#FFFFFF"/>
		<stop  offset="1" style="stop-color:#EBEBEB"/>
	</linearGradient>
	<rect x="18.019" clip-path="url(#SVGID_2_)" fill="url(#SVGID_3_)" width="602.04" height="127.01"/>
</g>
<path fill-rule="evenodd" clip-rule="evenodd" fill="#272625" d="M12.789,122.076l-0.761-0.019l-0.505-0.065l-0.554-0.106
	l-0.589-0.169l-0.283-0.1l-0.556-0.231l-0.267-0.125l-0.517-0.297l-0.464-0.315l-0.624-0.5l-0.281-0.263l-0.273-0.287l-0.256-0.3
	l-0.251-0.328l-0.314-0.472l-0.286-0.516l-0.131-0.278l-0.225-0.537l-0.097-0.275l-0.083-0.278l-0.146-0.574l-0.086-0.578
	l-0.023-0.244l-0.031-0.737V13.169l0.031-0.747l0.061-0.525l0.048-0.297l0.146-0.565l0.083-0.288l0.202-0.547l0.12-0.278
	l0.267-0.525l0.311-0.5l0.153-0.225l0.251-0.331l0.523-0.575l0.287-0.271l0.294-0.25l0.33-0.259l0.475-0.319L9.285,6.38l0.262-0.125
	l0.547-0.222l0.28-0.097l0.275-0.087l0.576-0.138l0.58-0.094l0.246-0.019l0.739-0.035h594.417l0.743,0.035l0.237,0.019l0.585,0.094
	l0.284,0.065l0.571,0.16l0.278,0.097l0.547,0.222l0.519,0.269l0.516,0.306l0.222,0.156l0.619,0.509l0.281,0.271l0.527,0.575
	l0.25,0.331l0.319,0.481l0.284,0.512l0.253,0.534l0.2,0.547l0.084,0.281l0.141,0.572l0.05,0.297l0.066,0.531l0.027,0.74V114.48
	l-0.027,0.737l-0.066,0.525l-0.112,0.587l-0.162,0.563l-0.2,0.55l-0.253,0.541l-0.284,0.516l-0.319,0.472l-0.506,0.628l-0.553,0.55
	l-0.3,0.256l-0.319,0.244l-0.48,0.322l-0.513,0.29l-0.541,0.244l-0.547,0.206l-0.571,0.149l-0.284,0.069l-0.578,0.097l-0.244,0.031
	l-0.743,0.019H12.789z M12.686,127.266h594.619l0.994-0.04l0.506-0.044l0.49-0.065l0.491-0.104l0.487-0.097l0.478-0.118l0.476-0.156
	l0.475-0.16l0.462-0.178l0.46-0.197l0.443-0.23l0.44-0.231l0.432-0.25l0.415-0.269l0.416-0.284l0.527-0.406l0.5-0.429l0.481-0.472
	l0.459-0.469l0.435-0.509l0.403-0.525l0.287-0.409l0.263-0.422l0.25-0.428l0.231-0.432l0.222-0.456l0.2-0.453l0.184-0.462
	l0.166-0.472l0.144-0.479l0.125-0.478l0.104-0.494l0.087-0.493l0.075-0.487l0.044-0.5l0.044-0.991V13.063l-0.044-0.984l-0.044-0.497
	l-0.075-0.497l-0.087-0.487l-0.104-0.491l-0.125-0.481l-0.144-0.472l-0.166-0.481l-0.184-0.469l-0.2-0.45l-0.222-0.45l-0.231-0.443
	l-0.25-0.419l-0.263-0.416l-0.287-0.422l-0.403-0.528l-0.435-0.497l-0.459-0.484l-0.481-0.453l-0.5-0.438l-0.527-0.4l-0.416-0.294
	l-0.415-0.259l-0.432-0.256l-0.44-0.228l-0.443-0.225l-0.46-0.191l-0.462-0.184l-0.475-0.172l-0.476-0.138l-0.478-0.134l-0.487-0.1
	l-0.491-0.082l-0.49-0.081l-0.506-0.038l-0.994-0.05H12.686l-0.992,0.05l-0.501,0.038l-0.486,0.081l-0.491,0.082l-0.489,0.1
	L9.246,0.859L8.768,0.997L8.299,1.168l-0.47,0.184L7.375,1.543l-0.45,0.225l-0.44,0.228L6.059,2.252L5.637,2.512L5.23,2.806
	l-0.528,0.4L4.198,3.643L3.713,4.096L3.257,4.581L2.831,5.077l-0.41,0.528L2.139,6.027L1.872,6.442L1.619,6.861l-0.242,0.45
	L1.166,7.755l-0.2,0.456L0.78,8.673L0.62,9.155L0.475,9.626l-0.126,0.475l-0.105,0.497l-0.09,0.475l-0.067,0.503l-0.048,0.503
	L0,13.063v101.514l0.038,0.991l0.048,0.506l0.067,0.481l0.09,0.493l0.105,0.494l0.126,0.478l0.145,0.479l0.16,0.472l0.186,0.456
	l0.2,0.459l0.211,0.456l0.242,0.432l0.253,0.428l0.267,0.422l0.283,0.409l0.41,0.525l0.426,0.509l0.456,0.487l0.484,0.453
	l0.505,0.429l0.528,0.406l0.406,0.277l0.418,0.275l0.423,0.244l0.438,0.23l0.452,0.231l0.458,0.19l0.467,0.19l0.475,0.16
	l0.487,0.156l0.492,0.125l0.503,0.112l0.477,0.081l0.486,0.071l0.481,0.038L12.686,127.266z"/>
<path fill-rule="evenodd" clip-rule="evenodd" fill="#0065CD" d="M22.845,102.464h8.3c1.434,0,2.863-0.381,4.101-1.091
	c1.233-0.722,2.281-1.759,2.993-3.002c0.72-1.237,1.095-2.669,1.095-4.087l-0.003-6.699c0-1.434-0.378-2.855-1.092-4.093
	c-0.712-1.24-1.757-2.287-2.993-2.993c-1.245-0.722-2.667-1.104-4.101-1.104h-8.3V102.464z M57.004,122.073H12.712l-0.769-0.019
	l-0.497-0.057l-0.556-0.112l-0.587-0.162l-0.288-0.106l-0.555-0.231l-0.27-0.125l-0.513-0.297l-0.469-0.31l-0.623-0.506
	l-0.281-0.263l-0.271-0.287l-0.261-0.3l-0.244-0.331l-0.325-0.476l-0.279-0.503l-0.128-0.278l-0.228-0.537l-0.094-0.287
	l-0.086-0.275l-0.141-0.571l-0.097-0.578l-0.019-0.244l-0.027-0.74V13.176l0.027-0.753l0.063-0.525l0.053-0.297l0.141-0.565
	l0.086-0.281l0.197-0.556l0.125-0.275L6.06,9.398l0.306-0.503L6.53,8.67l0.244-0.322l0.531-0.587l0.281-0.269l0.3-0.25l0.323-0.25
	l0.475-0.325L9.203,6.38l0.264-0.125l0.542-0.225l0.281-0.088l0.275-0.097l0.578-0.134l0.578-0.097l0.244-0.019l0.747-0.031h44.292
	V122.073z"/>
<polygon fill-rule="evenodd" clip-rule="evenodd" fill="#FFE500" points="13.693,39.287 12.978,41.512 10.769,41.512 12.584,42.868 
	11.896,45.048 13.708,43.687 15.566,45.039 14.831,42.861 16.636,41.512 14.421,41.512 "/>
<polygon fill-rule="evenodd" clip-rule="evenodd" fill="#FFE500" points="15.934,47.951 15.213,50.179 13.002,50.179 14.821,51.535 
	14.134,53.713 15.939,52.347 17.803,53.7 17.074,51.522 18.874,50.179 16.663,50.179 "/>
<polygon fill-rule="evenodd" clip-rule="evenodd" fill="#FFE500" points="15.958,30.77 15.241,33.004 13.031,33.004 14.849,34.36 
	14.165,36.538 15.968,35.182 17.834,36.525 17.102,34.354 18.902,32.998 16.685,33.004 "/>
<polygon fill-rule="evenodd" clip-rule="evenodd" fill="#FFE500" points="22.301,54.341 21.589,56.565 19.375,56.565 21.19,57.921 
	20.506,60.108 22.315,58.743 24.179,60.093 23.441,57.915 25.241,56.565 23.027,56.565 "/>
<polygon fill-rule="evenodd" clip-rule="evenodd" fill="#FFE500" points="22.343,24.358 21.623,26.592 19.413,26.592 21.234,27.939 
	20.543,30.114 22.35,28.757 24.219,30.114 23.48,27.939 25.283,26.583 23.071,26.592 "/>
<polygon fill-rule="evenodd" clip-rule="evenodd" fill="#FFE500" points="31.024,56.565 30.301,58.796 28.094,58.796 29.906,60.143 
	29.222,62.327 31.031,60.958 32.89,62.314 32.162,60.137 33.96,58.787 31.745,58.796 "/>
<polygon fill-rule="evenodd" clip-rule="evenodd" fill="#FFE500" points="31.093,21.943 30.372,24.177 28.16,24.183 29.978,25.527 
	29.3,27.708 31.1,26.346 32.965,27.702 32.234,25.521 34.037,24.177 31.82,24.177 "/>
<polygon fill-rule="evenodd" clip-rule="evenodd" fill="#FFE500" points="39.753,54.359 39.036,56.59 36.828,56.59 38.644,57.94 
	37.953,60.127 39.765,58.75 41.625,60.108 40.89,57.928 42.694,56.584 40.482,56.59 "/>
<polygon fill-rule="evenodd" clip-rule="evenodd" fill="#FFE500" points="39.748,24.365 39.026,26.592 36.819,26.592 38.641,27.948 
	37.95,30.12 39.761,28.764 41.617,30.114 40.885,27.939 42.693,26.592 40.475,26.592 "/>
<polygon fill-rule="evenodd" clip-rule="evenodd" fill="#FFE500" points="46.039,47.951 45.327,50.179 43.113,50.179 44.935,51.535 
	44.248,53.719 46.053,52.347 47.918,53.7 47.183,51.529 48.982,50.179 46.772,50.179 "/>
<polygon fill-rule="evenodd" clip-rule="evenodd" fill="#FFE500" points="46.08,30.792 45.368,33.01 43.154,33.016 44.972,34.378 
	44.291,36.55 46.092,35.188 47.956,36.538 47.224,34.366 49.026,33.01 46.806,33.01 "/>
<polygon fill-rule="evenodd" clip-rule="evenodd" fill="#FFE500" points="48.47,39.356 47.749,41.574 45.545,41.586 47.356,42.937 
	46.669,45.124 48.484,43.752 50.34,45.105 49.607,42.93 51.41,41.574 49.197,41.574 "/>
<path fill-rule="evenodd" clip-rule="evenodd" fill="#0065CD" d="M26.305,99.121V82.736h4.841c0.83,0,1.651,0.23,2.365,0.656
	c0.715,0.399,1.32,1.003,1.731,1.718c0.413,0.71,0.634,1.531,0.634,2.362v6.918c0,0.815-0.222,1.644-0.634,2.371
	c-0.414,0.709-1.016,1.315-1.731,1.731c-0.714,0.409-1.533,0.628-2.365,0.628H26.305z"/>
<path display="none" fill-rule="evenodd" clip-rule="evenodd" fill="#272625" d="M273.85,82.183l-0.013,0.76l-0.05,0.75
	l-0.072,0.759l-0.106,0.747l-0.128,0.753l-0.163,0.734l-0.19,0.737l-0.225,0.725l-0.247,0.716l-0.272,0.703l-0.313,0.693
	l-0.325,0.688l-0.359,0.675l-0.381,0.649l-0.409,0.638l-0.428,0.612l-0.619,0.813l-0.653,0.763l-0.7,0.737l-0.725,0.7l-0.772,0.655
	l-0.806,0.616l-0.619,0.428l-0.637,0.406l-0.653,0.388l-0.663,0.359l-0.684,0.334l-0.7,0.297l-0.7,0.278l-0.715,0.243l-0.722,0.226
	l-0.738,0.188l-0.74,0.165l-0.741,0.132l-0.753,0.108l-0.756,0.075l-0.75,0.038l-0.756,0.016l-0.762-0.016l-0.753-0.038
	l-0.756-0.075l-0.753-0.108l-0.74-0.132l-0.741-0.165l-0.734-0.188l-0.725-0.226l-0.712-0.243l-0.709-0.278l-0.69-0.297
	l-0.681-0.334l-0.672-0.359l-0.656-0.388l-0.631-0.406l-0.622-0.428l-0.803-0.616l-0.769-0.655l-0.728-0.7l-0.7-0.737l-0.65-0.763
	l-0.622-0.813l-0.428-0.612l-0.41-0.638l-0.381-0.649l-0.359-0.675l-0.334-0.688l-0.297-0.688l-0.281-0.709l-0.244-0.716
	l-0.215-0.725l-0.197-0.737l-0.166-0.734l-0.134-0.747l-0.1-0.746l-0.072-0.766l-0.047-0.75l-0.012-0.76l0.012-0.759l0.047-0.75
	l0.072-0.759l0.1-0.744l0.134-0.753l0.166-0.75l0.197-0.731l0.215-0.718l0.244-0.713l0.281-0.706l0.297-0.7l0.334-0.688l0.359-0.662
	l0.381-0.652l0.41-0.641l0.428-0.612l0.616-0.81l0.656-0.769l0.7-0.729l0.728-0.703l0.769-0.652l0.803-0.619l0.622-0.431l0.631-0.4
	l0.656-0.388l0.672-0.355l0.678-0.338l0.693-0.297l0.709-0.278l0.712-0.243l0.725-0.231l0.734-0.188l0.741-0.162l0.74-0.132
	l0.753-0.109l0.756-0.065l0.753-0.047l0.762-0.009l0.756,0.009l0.75,0.047l0.756,0.065l0.753,0.109l0.741,0.132l0.74,0.162
	l0.738,0.188l0.722,0.231l0.715,0.243l0.7,0.278l0.7,0.297l0.684,0.338l0.663,0.355l0.653,0.388l0.641,0.4l0.615,0.431l0.806,0.619
	l0.772,0.652l0.725,0.703l0.7,0.729l0.653,0.769l0.619,0.81l0.428,0.612l0.409,0.641l0.381,0.652l0.359,0.662l0.325,0.688l0.313,0.7
	l0.272,0.706l0.247,0.713l0.225,0.718l0.19,0.738l0.163,0.743l0.128,0.753l0.106,0.744l0.072,0.765l0.05,0.744L273.85,82.183z
	 M275.731,82.183c0.003-3.689-0.981-7.377-2.824-10.582c-1.844-3.199-4.543-5.899-7.74-7.758c-3.196-1.847-6.883-2.831-10.579-2.841
	c-3.693-0.006-7.383,0.981-10.589,2.825c-1.606,0.928-3.087,2.059-4.402,3.38c-2.612,2.612-4.521,5.921-5.478,9.496
	c-0.959,3.574-0.959,7.396,0,10.967c0.956,3.574,2.875,6.883,5.49,9.495c2.615,2.618,5.93,4.53,9.505,5.483
	c1.769,0.478,3.609,0.719,5.455,0.722c3.693-0.003,7.383-0.993,10.583-2.844c3.203-1.853,5.902-4.549,7.749-7.751
	C274.747,89.572,275.731,85.879,275.731,82.183z"/>
<path display="none" fill-rule="evenodd" clip-rule="evenodd" fill="#272625" d="M269.145,40.755l-0.009,0.575l-0.031,0.568
	l-0.063,0.569l-0.078,0.565l-0.097,0.569l-0.125,0.559l-0.147,0.556l-0.163,0.55l-0.19,0.538l-0.209,0.538l-0.231,0.521
	l-0.244,0.516l-0.272,0.513l-0.284,0.487l-0.31,0.49l-0.331,0.457l-0.466,0.615l-0.497,0.581l-0.525,0.556l-0.556,0.519
	l-0.581,0.494l-0.609,0.475l-0.462,0.322l-0.484,0.307l-0.494,0.296l-0.506,0.272l-0.512,0.247l-0.522,0.234l-0.537,0.209
	l-0.541,0.181l-0.547,0.169l-0.55,0.144l-0.563,0.119l-0.56,0.1l-0.568,0.082l-0.575,0.056l-0.568,0.038l-0.569,0.003l-0.575-0.003
	l-0.575-0.038l-0.568-0.056l-0.569-0.082l-0.563-0.1l-0.562-0.119l-0.553-0.144l-0.543-0.169l-0.541-0.181l-0.535-0.209
	l-0.525-0.234l-0.519-0.247l-0.5-0.272l-0.497-0.296l-0.481-0.307l-0.462-0.322l-0.609-0.475l-0.584-0.494l-0.553-0.519
	l-0.528-0.556l-0.497-0.581l-0.462-0.615l-0.328-0.457l-0.31-0.49l-0.288-0.487l-0.271-0.513l-0.25-0.516l-0.228-0.521l-0.212-0.538
	l-0.185-0.538l-0.166-0.55l-0.144-0.556l-0.122-0.559l-0.103-0.565l-0.078-0.569l-0.053-0.569l-0.034-0.568l-0.013-0.575
	l0.013-0.575l0.034-0.575l0.053-0.563l0.078-0.575l0.103-0.556l0.122-0.562l0.144-0.556l0.166-0.55l0.185-0.543l0.212-0.531
	l0.228-0.525l0.25-0.512l0.271-0.509l0.288-0.491l0.31-0.487l0.328-0.466l0.462-0.609l0.497-0.584l0.528-0.553l0.553-0.521
	l0.584-0.503l0.609-0.465l0.462-0.322l0.481-0.306l0.497-0.288l0.5-0.272l0.519-0.256l0.525-0.225l0.535-0.209l0.541-0.19
	l0.543-0.159l0.553-0.153l0.562-0.116l0.566-0.109l0.565-0.068l0.568-0.072l0.575-0.025l0.575-0.006l0.569,0.006l0.568,0.025
	l0.575,0.063l0.568,0.078l0.56,0.109l0.563,0.116l0.55,0.153l0.547,0.159l0.541,0.19l0.537,0.209l0.522,0.225l0.512,0.256
	l0.506,0.272l0.5,0.288l0.478,0.306l0.462,0.322l0.609,0.465l0.581,0.503l0.556,0.521l0.525,0.553l0.497,0.584l0.466,0.609
	l0.331,0.466l0.31,0.487l0.284,0.491l0.272,0.509l0.244,0.512l0.231,0.525l0.209,0.531l0.19,0.543l0.163,0.55l0.147,0.556
	l0.125,0.562l0.097,0.556l0.078,0.575l0.063,0.563l0.031,0.575L269.145,40.755z M271.029,40.755c0.003-2.88-0.766-5.739-2.197-8.233
	c-1.437-2.493-3.537-4.596-6.021-6.027c-2.487-1.44-5.355-2.212-8.227-2.212c-2.875-0.003-5.743,0.766-8.233,2.193
	c-1.253,0.719-2.403,1.606-3.428,2.631c-2.031,2.031-3.521,4.603-4.265,7.386c-0.741,2.781-0.741,5.749,0.006,8.527
	c0.74,2.784,2.234,5.352,4.271,7.389c2.031,2.031,4.608,3.519,7.386,4.262c1.381,0.369,2.812,0.556,4.246,0.562
	c2.872-0.006,5.743-0.778,8.23-2.212c2.49-1.44,4.59-3.543,6.027-6.033C270.26,46.499,271.032,43.63,271.029,40.755z"/>
<path display="none" fill="#181716" d="M342.433,30.655l-7.665,66.975c-0.164,1.114-0.754,1.671-1.769,1.671h-4.373
	c-0.983,0-1.622-0.557-1.917-1.671l-4.127-15.429c-0.395-1.113-1.163-1.672-2.31-1.672c-1.278,0-2.097,0.559-2.457,1.672
	l-4.521,15.429c-0.23,0.623-0.411,0.983-0.541,1.081c-0.229,0.394-0.639,0.59-1.228,0.59h-5.209c-1.148,0-1.786-0.557-1.917-1.671
	l-6.387-66.975c0-0.95,0.08-1.736,0.245-2.358c0.261-0.524,0.77-0.787,1.523-0.787h7.764c1.212,0,1.817,0.639,1.817,1.917
	l2.457,42.505c0,0.359,0.181,0.589,0.541,0.688c0.262,0.164,0.621,0.245,1.08,0.245c0.36,0,0.688-0.081,0.982-0.245
	c0.36-0.196,0.542-0.426,0.542-0.688l2.604-14.349c0-0.589,0.179-0.949,0.54-1.081c0.393-0.295,0.934-0.442,1.621-0.442h2.064
	c0.852,0,1.342,0.508,1.474,1.523l1.916,14.349c0.164,0.359,0.394,0.589,0.688,0.688c0.196,0.164,0.523,0.245,0.982,0.245
	c0.458,0,0.818-0.081,1.081-0.245c0.359-0.164,0.541-0.394,0.541-0.688l5.355-42.8c0-0.491,0.18-0.9,0.541-1.228
	c0.196-0.262,0.557-0.394,1.081-0.394h5.061c0.558,0,1.064,0.263,1.523,0.787C342.302,29.051,342.433,29.836,342.433,30.655z"/>
<path display="none" fill="#181716" d="M392.602,97.09c0,0.623-0.18,1.13-0.54,1.523c-0.524,0.459-0.983,0.688-1.376,0.688h-6.585
	c-0.622,0-1.064-0.229-1.326-0.688c-0.459-0.459-0.688-0.917-0.688-1.376v-4.128c0-0.36-0.18-0.54-0.54-0.54
	c-0.361,0-0.688,0.147-0.982,0.441c-2.392,2.229-4.898,3.997-7.519,5.308c-2.883,1.277-5.667,1.916-8.354,1.916
	c-2.916,0-5.471-0.54-7.665-1.621c-1.933-0.983-3.653-2.538-5.159-4.668c-1.277-1.966-2.244-4.161-2.899-6.585
	c-0.525-2.359-0.787-4.995-0.787-7.911V29.672c0-0.655,0.181-1.146,0.542-1.474c0.294-0.458,0.753-0.688,1.375-0.688h7.617
	c0.589,0,0.999,0.181,1.228,0.541c0.459,0.426,0.688,0.885,0.688,1.376v49.63c0,2.784,0.867,4.962,2.604,6.535
	c1.638,1.736,3.832,2.604,6.584,2.604c3.768,0,6.731-1.327,8.894-3.98c2.261-2.489,3.392-5.667,3.392-9.533V29.427
	c0-0.458,0.228-0.917,0.688-1.376c0.294-0.36,0.802-0.541,1.522-0.541h7.371c0.557,0,1.015,0.181,1.376,0.541
	c0.36,0.361,0.54,0.819,0.54,1.376V97.09z"/>
<path display="none" fill="#181716" d="M443.31,97.384c0,0.427-0.181,0.869-0.541,1.327c-0.36,0.394-0.818,0.59-1.376,0.59h-6.683
	c-0.59,0-1.048-0.196-1.376-0.59c-0.36-0.359-0.54-0.852-0.54-1.474c0-0.295-0.05-0.523-0.147-0.688
	c0-0.459-0.049-0.737-0.147-0.836l-22.014-38.819c-0.295-0.458-0.656-0.688-1.081-0.688c-0.721,0-1.081,0.229-1.081,0.688v40.489
	c0,0.524-0.18,0.968-0.54,1.327c-0.394,0.394-0.901,0.59-1.523,0.59h-6.438c-0.655,0-1.146-0.196-1.475-0.59
	c-0.393-0.523-0.589-0.966-0.589-1.327V29.672c0-0.458,0.196-0.95,0.589-1.474c0.296-0.458,0.737-0.688,1.327-0.688h6.732
	c0.556,0,1.015,0.181,1.376,0.541c0.36,0.361,0.54,0.819,0.54,1.376c0,0.263,0.049,0.524,0.147,0.786
	c0,0.361,0.032,0.639,0.099,0.835l22.014,38.819c0.294,0.459,0.704,0.688,1.229,0.688c0.654,0,0.982-0.229,0.982-0.688v-40.44
	c0-0.557,0.18-1.015,0.54-1.376c0.295-0.36,0.754-0.541,1.376-0.541h6.535c0.688,0,1.196,0.23,1.523,0.688
	c0.36,0.491,0.541,0.983,0.541,1.474V97.384z"/>
<path display="none" fill="#181716" d="M494.063,81.218c0,2.916-0.59,5.7-1.769,8.354c-1.246,2.326-2.933,4.324-5.062,5.995
	c-2.326,1.604-4.783,2.801-7.371,3.587c-2.883,0.721-5.798,1.081-8.747,1.081c-3.57,0-6.682-0.277-9.335-0.836
	c-2.621-0.359-4.947-1.26-6.978-2.702c-1.966-1.18-3.506-3.047-4.619-5.602c-1.114-2.425-1.671-5.535-1.671-9.337
	c0-0.261,0.196-0.753,0.589-1.473c0.394-0.459,0.836-0.688,1.327-0.688h7.272c0.558,0,1.015,0.18,1.376,0.54
	c0.197,0.361,0.376,0.868,0.54,1.524c0.132,1.637,0.541,2.898,1.229,3.783c0.786,1.08,1.703,1.867,2.752,2.358
	c1.146,0.589,2.326,0.95,3.538,1.08c0.818,0.197,2.146,0.296,3.979,0.296c1.998,0,3.408-0.05,4.227-0.148
	c1.573-0.326,2.752-0.654,3.538-0.981c1.244-0.623,2.112-1.344,2.604-2.163c0.72-1.015,1.081-2.243,1.081-3.685
	c0-2.326-1.049-4.472-3.145-6.438c-2.032-1.899-5.209-4.226-9.534-6.978c-3.438-2.063-5.863-3.619-7.271-4.668
	c-1.999-1.507-3.816-3.096-5.454-4.767c-1.867-1.933-3.243-3.98-4.128-6.142c-1.081-2.194-1.621-4.7-1.621-7.518
	c0-3.145,0.54-5.879,1.621-8.206c1.18-2.292,2.735-4.209,4.668-5.749c2.03-1.474,4.356-2.571,6.978-3.292
	c2.326-0.622,5.143-0.934,8.451-0.934c2.949,0,5.554,0.263,7.813,0.787c2.621,0.623,4.718,1.54,6.29,2.751
	c1.834,1.212,3.292,2.899,4.373,5.061c1.015,2.358,1.523,4.996,1.523,7.911c0,0.492-0.196,1-0.59,1.523
	c-0.459,0.459-0.95,0.688-1.474,0.688h-6.438c-0.524,0-1.032-0.229-1.523-0.688c-0.361-0.36-0.54-0.818-0.54-1.375
	c0-2.686-0.868-4.651-2.604-5.897c-1.769-1.18-3.947-1.769-6.535-1.769c-2.556,0-4.98,0.639-7.272,1.917
	c-2.163,1.376-3.243,3.292-3.243,5.75c0,2.523,1.048,4.667,3.145,6.437c1.998,1.934,5.176,4.259,9.533,6.978
	c1.441,0.983,2.768,1.876,3.979,2.678c1.212,0.804,2.31,1.548,3.292,2.236c2.064,1.507,3.882,3.096,5.455,4.767
	c1.867,2.064,3.243,4.127,4.128,6.191C493.522,75.78,494.063,78.368,494.063,81.218z"/>
<path display="none" fill="#181716" d="M544.821,77.287c0,6.88-2.048,12.302-6.142,16.265c-4.128,3.832-9.698,5.749-16.708,5.749
	c-8.026,0-13.808-1.917-17.346-5.749c-3.57-3.864-5.355-9.336-5.355-16.412V39.647c0-3.636,1.195-6.601,3.587-8.894
	c2.457-2.162,5.372-3.243,8.746-3.243h24.324c1.67,0,3.128,0.541,4.373,1.622c1.113,1.212,1.67,2.769,1.67,4.668l-1.67,13.365
	c-0.165,1.114-0.655,1.671-1.475,1.671h-6.438c-1.277,0-1.916-0.688-1.916-2.063v-8.354c0-0.393-0.229-0.852-0.688-1.375
	c-0.361-0.36-0.868-0.541-1.523-0.541h-12.678c-1.344,0-2.49,0.459-3.439,1.376c-0.918,0.852-1.376,1.999-1.376,3.439v34.151
	c0,3.931,0.868,6.995,2.604,9.188c1.769,2.097,4.635,3.146,8.599,3.146c3.505,0,6.29-1.098,8.354-3.293
	c1.998-2.129,2.998-4.913,2.998-8.353c0-1.18,0.688-1.77,2.063-1.77h7.271c0.852,0,1.441,0.279,1.771,0.836
	C544.69,75.813,544.821,76.501,544.821,77.287z"/>
<path display="none" fill="#181716" d="M595.577,97.09c0,0.491-0.181,1-0.541,1.523c-0.459,0.459-0.966,0.688-1.523,0.688h-7.37
	c-0.524,0-1.032-0.229-1.523-0.688c-0.361-0.394-0.54-0.853-0.54-1.376V67.853c0-0.523-0.182-1.032-0.54-1.523
	c-0.361-0.36-0.82-0.54-1.376-0.54h-18.575c-1.376,0-2.063,0.639-2.063,1.916v29.679c0,0.524-0.181,0.968-0.541,1.327
	c-0.36,0.394-0.868,0.59-1.522,0.59h-7.371c-0.655,0-1.147-0.196-1.475-0.59c-0.393-0.523-0.589-0.966-0.589-1.327V29.672
	c0-0.458,0.196-0.95,0.589-1.474c0.296-0.458,0.737-0.688,1.327-0.688h7.665c0.59,0,1.049,0.181,1.376,0.541
	c0.36,0.361,0.541,0.819,0.541,1.376v22.702c0,0.426,0.18,0.917,0.541,1.474c0.491,0.459,0.998,0.688,1.522,0.688h18.477
	c0.393,0,0.884-0.18,1.475-0.541c0.358-0.458,0.54-0.917,0.54-1.376V29.427c0-0.557,0.179-1.015,0.54-1.376
	c0.36-0.36,0.867-0.541,1.523-0.541h7.37c0.688,0,1.196,0.181,1.523,0.541c0.36,0.492,0.541,0.951,0.541,1.376V97.09z"/>
</svg>
